<svg width="30" height="30" viewBox="0 0 28 26" fill="none" xmlns="http://www.w3.org/2000/svg">
<path d="M0 5.28001C0 3.94667 0.479999 2.80001 1.41333 1.86667C2.37333 0.906674 3.49333 0.453341 4.82667 0.453341C6.13333 0.453341 7.28 0.933341 8.21333 1.86667C9.14667 2.82667 9.62667 3.94667 9.62667 5.28001C9.62667 6.61334 9.14667 7.76001 8.21333 8.69334C7.28 9.65334 6.13333 10.1067 4.82667 10.1067C3.49333 10.1067 2.34667 9.62668 1.41333 8.69334C0.479999 7.76001 0 6.61334 0 5.28001ZM2.34667 5.28001C2.34667 5.97334 2.58667 6.56001 3.06667 7.06667C3.57333 7.57334 4.16 7.81334 4.85333 7.81334C5.54667 7.81334 6.13333 7.57334 6.64 7.06667C7.14667 6.56001 7.38667 5.97334 7.38667 5.28001C7.38667 4.58667 7.14667 4.00001 6.64 3.49334C6.13333 2.98668 5.54667 2.74667 4.85333 2.74667C4.16 2.74667 3.57333 2.98668 3.06667 3.49334C2.58667 3.97334 2.34667 4.58667 2.34667 5.28001ZM12.72 17.0667C12.72 19.12 13.28 20.9333 14.4267 22.5333C15.0133 23.36 15.84 24.0267 16.9067 24.5333C17.9467 25.0133 19.1467 25.28 20.48 25.28C24.3733 25.28 26.8267 23.7867 27.8133 20.8267C27.92 20.4533 27.8667 20.08 27.6533 19.7333C27.44 19.3867 27.1467 19.2 26.7733 19.12C26.4 19.0133 26.0267 19.0667 25.7067 19.3067C25.3867 19.52 25.1733 19.8133 25.0933 20.2133C25.0933 20.24 25.0933 20.2667 25.0667 20.3467L25.0133 20.5333C24.72 21.04 24.32 21.44 23.8133 21.7333C22.9867 22.24 21.8933 22.48 20.5333 22.48C19.7067 22.48 18.96 22.3467 18.32 22.0533C17.2533 21.6 16.5067 20.8 16.0533 19.68C15.76 18.96 15.6 18.08 15.6 17.0933V8.50667C15.6 8.10667 15.6267 7.70667 15.68 7.30667C15.7867 6.29334 16.1867 5.36001 16.88 4.53334C17.6533 3.60001 18.88 3.14668 20.56 3.14668C21.9467 3.14668 23.04 3.38667 23.84 3.86667C24.3733 4.18667 24.7733 4.58667 25.04 5.06667C25.0667 5.12001 25.0667 5.20001 25.0933 5.28001C25.12 5.36001 25.12 5.41334 25.12 5.44001C25.2267 5.81334 25.44 6.08001 25.7333 6.24001C26.0533 6.42668 26.4 6.45334 26.8 6.37334C27.1733 6.29334 27.4667 6.08001 27.68 5.76001C27.8933 5.44001 27.9467 5.09334 27.84 4.69334V4.66667L27.6267 4.05334C27.4933 3.76001 27.2533 3.36001 26.88 2.90668C26.5333 2.42667 26.1067 2.05334 25.68 1.73334C25.12 1.33334 24.4 1.01334 23.4933 0.720009C22.5867 0.453342 21.6 0.320007 20.5333 0.320007C19.1733 0.320007 18 0.560009 16.9333 1.04001C15.8933 1.52001 15.0667 2.16001 14.5067 2.98667C13.36 4.56001 12.7733 6.40001 12.7733 8.50667V17.0667H12.72Z" fill="#2B374D"/>
</svg>
